<svg xmlns="http://www.w3.org/2000/svg" version="1.1" xmlns:xlink="http://www.w3.org/1999/xlink" xmlns:svgjs="http://svgjs.dev/svgjs" width="100%" height="100%" viewBox="0 0 1000 600"><rect width="1000" height="600" x="0" y="0" fill="#661111"/><g><circle r="166.66666666666666" cx="322.7901255289714" cy="345.01232232820087" fill="#f4a896" transform="matrix(0.800648601640551,0,0,0.8006486016405508,0,23.766366940842204)"/><path d="M399.72586760928453 306.8876872421925L399.72586760928453 306.8876872421925Q399.72586760928453 317.32151387689106 395.96419853309055 326.5746706555579Q392.20252945689657 335.8552848727371 385.832403722028 343.84539947983524Q379.46227798715944 351.8629715254457 371.0603018023759 358.23309726031425Q362.65832561759237 364.6032229951828 353.10313701528946 369.0513280341859Q343.5479484129866 373.499433073189 333.52598335597355 375.91568766227704Q323.47656086044816 378.3319422513651 314.00374457368235 378.3319422513651L314.00374457368235 378.3319422513651Q313.0427342257496 378.3319422513651 311.6973197386437 378.4143145669022Q310.35190525153786 378.5241443209516 308.81428869484546 378.3319422513651Q307.2492146996407 378.1122827432662 305.9038002125348 377.83770835814255Q304.55838572542893 377.53567653450654 303.9817795166693 376.5746661865738L303.9817795166693 376.5746661865738Q301.45569517353175 381.59937743433653 298.6550364452706 386.51425892804974Q295.8543777170094 391.4565978602754 292.39474046445144 395.8772454607661L292.39474046445144 395.8772454607661Q284.679200242477 406.31107209546457 273.09216119025916 413.17543172355573Q261.5051221380413 420.0123339131345 248.18826445954448 420.0123339131345L248.18826445954448 420.0123339131345Q247.22725411161173 420.0123339131345 246.54081814880263 419.05132356520176Q245.85438218599353 418.090313217269 245.85438218599353 417.12930286933624L245.85438218599353 417.12930286933624Q245.85438218599353 414.79542059578523 247.99606238995796 414.4110164566122L247.99606238995796 414.4110164566122Q251.84010378168898 413.45000610867936 255.32719847275928 412.7910275843827Q258.7868357253172 412.10459162157355 262.65833455556066 410.5669750648811L262.65833455556066 410.5669750648811Q271.55454463356676 406.69547623463774 278.19924475355896 399.63891453696004Q284.87140231206354 392.6098102777947 289.8961135598263 383.9058022693751Q294.8933673690766 375.2292516994679 298.5726641297335 365.8662651667516Q302.2519608903903 356.50327863403527 305.1349919341886 348.0189301337146L305.1349919341886 348.0189301337146Q307.6336188388138 340.27593247322784 309.8576713583153 332.3681901816668Q312.08172387781684 324.46044789010585 314.38814871285547 316.63507791408193Q316.7220309864064 308.80970793805807 319.41285996061816 301.0941677160836Q322.13114637334223 293.37862749410914 325.78298569548673 286.0474914113078L325.78298569548673 286.0474914113078Q320.3738703085509 289.3149265942792 314.8000102905409 291.92338325295384Q309.1986928340186 294.5318399116285 303.78957744708276 297.7992750945998L303.78957744708276 297.7992750945998Q299.9180786168393 300.1331573681508 295.96420747105884 302.93381609641204Q292.01033632527833 305.7344748246732 288.52324163420803 309.0019100076446Q285.0636043816501 312.29680262912836 282.26294565338895 316.0584717053223Q279.4622869251277 319.8201407815162 277.7324682988488 324.26824582051927L277.7324682988488 324.26824582051927Q276.9362025819902 326.19026651638484 276.66162819686656 328.02991489671325Q276.35959637323054 329.86956327704166 275.97519223405743 331.9837860424937L275.97519223405743 331.9837860424937Q275.5907880948843 332.9447963904265 274.8219798165381 333.43903028364906Q274.0531715381919 333.9058067383593 273.2843632598457 333.9058067383593L273.2843632598457 333.9058067383593Q271.14268305588126 333.9058067383593 270.6759066011711 332.67022200530283Q270.1816727079485 331.40717983373406 270.1816727079485 329.86956327704166L270.1816727079485 329.86956327704166Q270.1816727079485 323.3072354725865 272.70775705108605 317.40388619242816Q275.2063839557112 311.52799435078214 279.1602551014917 306.39345334896996Q283.1141262472722 301.28636978567016 288.2486672490844 297.0304668162537Q293.3557508123842 292.8020212853495 298.5726641297335 289.5071286638657L298.5726641297335 289.5071286638657Q307.2492146996407 283.9058112073434 316.914233055993 278.606525574457Q326.55179397383296 273.3072399415707 336.2168123301853 270.0123473200869L336.2168123301853 270.0123473200869L336.60121646935835 270.0123473200869Q337.7544288868777 270.0123473200869 339.01747105844646 270.9733576680197Q340.28051323001523 271.93436801595243 340.28051323001523 273.3072399415707L340.28051323001523 273.3072399415707Q340.28051323001523 273.4994420111572 339.5940772672061 275.4214627070227Q338.90764130439703 277.3434834028883 338.0564607105137 279.67736567643925Q337.17782267811805 281.9837905114779 336.3266420842347 284.0980132769299Q335.44800405183906 286.23969348089435 335.25580198225254 286.816299689654L335.25580198225254 286.816299689654Q338.71543923481045 283.5214070681703 342.97134220422697 280.5285462703225Q347.22724517364344 277.5356854724748 351.8675522822331 275.22926063743614Q356.48040195231033 272.8953783638852 361.4227408845359 271.5499638767793Q366.3376223782492 270.2045493896735 371.3623336260119 270.2045493896735L371.3623336260119 270.2045493896735Q379.0778738479864 270.2045493896735 384.4869892349222 273.4994420111572Q389.896104621858 276.7668771941286 393.27336955887887 281.9837905114779Q396.6506344958997 287.20070382882716 398.1882510525921 293.76303163328225Q399.72586760928453 300.3253594377374 399.72586760928453 306.8876872421925ZM389.896104621858 307.0798893117791L389.896104621858 307.0798893117791Q389.896104621858 302.82398634236256 389.01746658946234 298.1013069182359Q388.1388285570667 293.37862749410914 386.0246057916146 289.6169584179152Q383.9103830261625 285.8552893417213 380.3409160195551 283.32920499858375Q376.77144901294776 280.83057809395854 371.5545356955985 280.83057809395854L371.5545356955985 280.83057809395854Q368.4518451437013 280.83057809395854 365.37661203031644 281.59938637230476Q362.27392147841925 282.36819465065093 359.390890434621 283.5214070681703L359.390890434621 283.5214070681703Q351.0712865653745 286.816299689654 343.9323525521597 292.4999894617135Q336.79341853894493 298.2111366722853 331.19210108242254 305.15786861591357L331.19210108242254 305.15786861591357Q330.2310907344898 306.31108103343286 329.1602506325076 307.7663252745882Q328.11686796903774 309.1941120772312 327.3480596906915 310.5669840028494L327.3480596906915 310.5669840028494Q326.35959190424643 312.6812067683014 325.3162092407766 316.63507791408193Q324.24536913879433 320.58894905986244 323.47656086044816 323.115033403L323.47656086044816 323.115033403Q321.36233809499606 330.0617653466282 319.02845582144505 337.09086960579356Q316.7220309864064 344.14743130347125 314.38814871285547 351.09416324709946L314.38814871285547 351.09416324709946Q312.46612801698996 356.50327863403527 310.43427756707496 361.80256426692165Q308.42988455567234 367.1293073383204 306.09600228212133 372.34622065566964L306.09600228212133 372.34622065566964Q307.0570126300541 371.9343590779842 308.01802297798685 372.0441888320336Q309.006490764432 372.15401858608305 309.96750111236474 372.15401858608305L309.96750111236474 372.15401858608305Q322.70775258210193 372.15401858608305 336.71104622340783 367.21167965385746Q350.6868824262014 362.2967981601442 362.57595330205527 353.620247590237Q374.43756673939674 344.9162395818174 382.1531069613712 333.05462614447595Q389.896104621858 321.1655552686221 389.896104621858 307.0798893117791Z " fill="#35" transform="matrix(0.800648601640551,0,0,0.8006486016405508,0,23.766366940842204)"/><path d="M661.4142578977016 295.584298176899L661.4142578977016 295.584298176899Q661.4142578977016 301.5937859731272 659.2476794027457 306.92325278188747Q657.0811009077897 312.2685340322168 653.4121504637767 316.870536528802Q649.7432000197638 321.4883534669563 644.9039808996431 325.15730391096935Q640.0647617795225 328.8262543549823 634.561336113503 331.3881938891638Q629.0579104474836 333.95013342334533 623.2856392747907 335.34180428141923Q617.4975536605288 336.7334751394931 612.0415713192164 336.7334751394931L612.0415713192164 336.7334751394931Q611.4880658643006 336.7334751394931 610.7131582274185 336.78091846420017Q609.9382505905364 336.84417623047625 609.0526418626713 336.7334751394931Q608.151218693237 336.60695960694096 607.3763110563549 336.44881519125073Q606.6014034194728 336.27485633399147 606.2693001465235 335.7213508790757L606.2693001465235 335.7213508790757Q604.8143715221735 338.6153936862067 603.2012984821332 341.4461787270615Q601.5882254420931 344.29277820948545 599.5956058043963 346.8389033020979L599.5956058043963 346.8389033020979Q595.1517477235012 352.8483910983261 588.4780533813743 356.80200149058146Q581.8043590392471 360.73979744126785 574.1343548782717 360.73979744126785L574.1343548782717 360.73979744126785Q573.580849423356 360.73979744126785 573.1854883841303 360.1862919863521Q572.7901273449048 359.63278653143635 572.7901273449048 359.07928107652054L572.7901273449048 359.07928107652054Q572.7901273449048 357.73505354315375 574.0236537872885 357.51365136118744L574.0236537872885 357.51365136118744Q576.2376756069515 356.9601459062717 578.2461096862172 356.58059930861515Q580.238729323914 356.18523826938963 582.4685655851459 355.29962954152444L582.4685655851459 355.29962954152444Q587.592444653509 353.0697932802924 591.4195395132123 349.00548179705385Q595.2624488144844 344.9569847553843 598.1564916216154 339.9438067780045Q601.0347199871773 334.94644324219365 603.1538551574262 329.5537186671573Q605.2729903276751 324.160994092121 606.9335066924224 319.2743316472933L606.9335066924224 319.2743316472933Q608.3726208752033 314.81465912482923 609.653590642294 310.260099952951Q610.9345604093847 305.7055407810728 612.2629735011826 301.19842493390166Q613.6072010345495 296.69130908673054 615.1570163083136 292.2474510058355Q616.7226460236467 287.8035929249404 618.8259667523265 283.5811370260117L618.8259667523265 283.5811370260117Q615.7105217632294 285.46305557272524 612.500190124718 286.96542752178226Q609.2740440446375 288.4677994708393 606.1585990555403 290.34971801755285L606.1585990555403 290.34971801755285Q603.9287627943082 291.6939455509197 601.6514832083691 293.30701859095996Q599.3742036224301 294.9200916310001 597.3657695431643 296.80201017771367Q595.3731499054676 298.69974316599627 593.7600768654273 300.8663216609522Q592.1470038253872 303.0329001559082 591.1506940065389 305.59483969008966L591.1506940065389 305.59483969008966Q590.6920752010373 306.70185059992116 590.533930785347 307.7614181850456Q590.3599719280877 308.82098577017007 590.1385697461214 310.0386977709847L590.1385697461214 310.0386977709847Q589.9171675641552 310.5922032259005 589.4743632002226 310.87686317414284Q589.03155883629 311.14570868081626 588.5887544723573 311.14570868081626L588.5887544723573 311.14570868081626Q587.3552280299737 311.14570868081626 587.0863825233004 310.4340588102103Q586.8017225750579 309.70659449803526 586.8017225750579 308.82098577017007L586.8017225750579 308.82098577017007Q586.8017225750579 305.0413342351739 588.2566511994079 301.6412292978343Q589.6957653821888 298.25693880206364 591.973044968128 295.2996382286566Q594.2503245540671 292.3581520968186 597.2076251274741 289.9069136536203Q600.1491112593121 287.47148965199096 603.1538551574262 285.57375666370837L603.1538551574262 285.57375666370837Q608.151218693237 282.347610583628 613.7179021255325 279.2954233608068Q619.2687711162592 276.24323613798566 624.8354545485548 274.34550314970306L624.8354545485548 274.34550314970306L625.0568567305211 274.34550314970306Q625.72106327642 274.34550314970306 626.448527588595 274.8990086046188Q627.1759919007699 275.45251405953456 627.1759919007699 276.24323613798566L627.1759919007699 276.24323613798566Q627.1759919007699 276.3539372289688 626.7806308615444 277.4609481388003Q626.385269822319 278.5679590486318 625.8950221336792 279.91218658199864Q625.3889600034705 281.24059967379645 624.8987123148308 282.45831167461114Q624.3926501846221 283.6918381169948 624.281949093639 284.02394138994424L624.281949093639 284.02394138994424Q626.2745687313358 282.12620840166164 628.725807174534 280.4024342706383Q631.1770456177325 278.678660139615 633.8496862428971 277.35024704781716Q636.5065124264927 276.0060195144503 639.3531119089165 275.2311118775683Q642.1838969497713 274.45620424068625 645.0779397569023 274.45620424068625L645.0779397569023 274.45620424068625Q649.5217978377974 274.45620424068625 652.6372428268946 276.3539372289688Q655.7526878159919 278.23585577568235 657.6978641289816 281.24059967379645Q659.6430404419713 284.24534357191055 660.5286491698364 288.0249951069067Q661.4142578977016 291.8046466419029 661.4142578977016 295.584298176899ZM655.7526878159919 295.69499926788217L655.7526878159919 295.69499926788217Q655.7526878159919 293.2437608246838 655.2466256857832 290.5236768748121Q654.7405635555746 287.8035929249404 653.5228515547599 285.63701442998445Q652.3051395539452 283.4704359350285 650.2492621499724 282.0155073106785Q648.1933847459997 280.5763931278976 645.1886408478855 280.5763931278976L645.1886408478855 280.5763931278976Q643.4016089505861 280.5763931278976 641.6303914948556 281.01919749183014Q639.8433595975563 281.46200185576276 638.182843232809 282.12620840166164L638.182843232809 282.12620840166164Q633.3910674373955 284.02394138994424 629.2793126294498 287.2975307947317Q625.1675578215041 290.5869346410882 621.9414117414238 294.58798835805067L621.9414117414238 294.58798835805067Q621.387906286508 295.25219490394954 620.7711430653162 296.09036030710774Q620.1701942856934 296.91271126869685 619.7273899217608 297.7034333471479L619.7273899217608 297.7034333471479Q619.1580700252761 298.9211453479626 618.5571212456532 301.19842493390166Q617.9403580244614 303.4757045198408 617.4975536605288 304.9306331441908L617.4975536605288 304.9306331441908Q616.2798416597141 308.9316868611532 614.9356141263473 312.9801839028227Q613.6072010345495 317.04449538606127 612.2629735011826 321.04554910302375L612.2629735011826 321.04554910302375Q611.1559625913511 324.160994092121 609.9856939152436 327.2131813149421Q608.8312396807049 330.2811829793323 607.4870121473381 333.2859268774464L607.4870121473381 333.2859268774464Q608.0405176022539 333.0487102539111 608.5940230571697 333.11196802018713Q609.1633429536544 333.1752257864633 609.7168484085702 333.1752257864633L609.7168484085702 333.1752257864633Q617.0547492965961 333.1752257864633 625.1201144967971 330.3286263040394Q633.1696652554291 327.4978412631845 640.0173184548155 322.5004777273737Q646.8491572126328 317.4872997499939 651.2930152935279 310.6554609921766Q655.7526878159919 303.80780779279024 655.7526878159919 295.69499926788217ZM699.2265876892322 315.25746348876186L699.2265876892322 315.25746348876186Q699.2265876892322 316.1588866581961 699.1158865982491 316.93379429507814Q699.0051855072659 317.7087019319602 698.7837833252996 318.5943106598254L698.7837833252996 318.5943106598254Q698.5623811433333 319.4957338292596 697.5502568829158 319.4957338292596L697.5502568829158 319.4957338292596Q697.1074525189833 319.4957338292596 696.2851015573941 319.1003727900341Q695.446936154236 318.7050117508085 695.446936154236 318.26220738687596L695.446936154236 318.26220738687596L695.5576372452192 317.2658975680276Q695.5576372452192 316.4909899311455 695.3836783879599 315.383979021314Q695.2255339722698 314.2611536699135 694.8301729330442 313.201586084789Q694.4506263353876 312.1578329412336 693.7706053479197 311.4303686290586Q693.1063988020209 310.70290431688363 691.9993878921894 310.70290431688363L691.9993878921894 310.70290431688363Q689.3267472670246 310.70290431688363 686.3220033689106 312.31597735692384Q683.3172594707964 313.92905039696404 681.2139387421166 315.49468011229715L681.2139387421166 315.49468011229715Q680.3283300142514 316.1588866581961 678.7627002989183 317.4872997499939Q677.2128850251542 318.8157128417917 675.5365542188379 320.3813425571248Q673.8760378540906 321.93115783088894 672.4843669960167 323.3860864552389Q671.0926961379428 324.8252006380199 670.5391906830271 325.7108093658851L670.5391906830271 325.7108093658851Q670.2070874100776 326.1694281713867 669.7010252798689 327.3238824059253Q669.1949631496602 328.4941510820329 668.7047154610206 329.83837861539973Q668.1986533308119 331.16679170719755 667.7084056421722 332.3845037080122Q667.2023435119635 333.6180301503959 666.870240239014 334.2822366962948L666.870240239014 334.2822366962948Q664.6404039777821 339.611703505055 662.5845265738093 344.9569847553843Q660.5286491698364 350.28645156414456 658.757431714106 355.742433905457L658.757431714106 355.742433905457Q657.8560085446718 358.3043734396385 657.1443586740658 361.02445738951025Q656.4168943618907 363.74454133938195 655.5312856340256 366.30648087356343L655.5312856340256 366.30648087356343Q655.088481270093 367.1920896014286 654.408460282625 367.1920896014286L654.408460282625 367.1920896014286Q653.9656559186925 367.1920896014286 653.1274905155343 366.6860274712199Q652.3051395539452 366.19577978258025 652.3051395539452 365.7529754186477L652.3051395539452 365.7529754186477Q652.3051395539452 364.51944897626396 652.6846861516018 362.9696337024999Q653.0800471908273 361.40400398716673 653.3014493727936 360.1862919863521L653.3014493727936 360.1862919863521Q654.7405635555746 352.9590921893092 656.8596987258235 345.9532945742327Q658.9788338960723 338.9474969591561 661.7463611706511 332.16310152604586L661.7463611706511 332.16310152604586Q662.7584854310684 329.49046090088126 664.1501562891423 325.8215104568682Q665.5260127056473 322.15256001285525 667.0916424209803 318.32546515315204Q668.6414576947445 314.4825558518798 670.3652318257679 311.09826535610915Q672.0890059567912 307.69816041876953 673.8760378540906 305.7055407810728L673.8760378540906 305.7055407810728Q674.3188422180232 305.2627364171402 674.872347672939 305.2627364171402L674.872347672939 305.2627364171402Q675.3151520368716 305.2627364171402 676.1533174400297 305.7529841057799Q676.9914828431879 306.2590462359886 676.9914828431879 306.81255169090434L676.9914828431879 306.81255169090434Q676.9914828431879 307.1446549638538 676.7700806612215 307.9828203670119Q676.5486784792553 308.82098577017007 676.3114618557199 309.7540378227423Q676.0900596737536 310.70290431688363 675.8212141670803 311.5410697200418Q675.5365542188379 312.3792351231999 675.4258531278547 312.71133839614936L675.4258531278547 312.71133839614936Q678.9841024808845 310.0386977709847 682.8744551068639 307.91956260073584Q686.7648077328431 305.81624187205597 691.4458824372736 305.81624187205597L691.4458824372736 305.81624187205597Q693.4385020749703 305.81624187205597 694.8934306993202 306.6544072752141Q696.3325448821012 307.4767582368032 697.3288547009496 308.82098577017007Q698.340978961367 310.1493988619679 698.7837833252996 311.82572966828417Q699.2265876892322 313.4862460330314 699.2265876892322 315.25746348876186ZM741.2613733796915 319.71713601122593L741.2613733796915 319.71713601122593Q741.2613733796915 323.93959191015466 740.3125068855502 328.93695544596545Q739.3636403914089 333.95013342334533 737.4817218446954 338.9474969591561Q735.5839888564127 343.96067493653595 732.863904906541 348.6733785241044Q730.1438209566693 353.40189655324184 726.6330149283465 357.0708469972548Q723.1380233415928 360.73979744126785 718.8523096763879 362.9063759362238Q714.566596011183 365.08876887274874 709.6799335663554 365.08876887274874L709.6799335663554 365.08876887274874Q706.0109831223424 365.08876887274874 703.3383424971778 363.12777811819007Q700.6657018720132 361.1826018052004 698.8312266500067 358.19367234865535Q696.9967514280002 355.18892845054125 696.1111427001349 351.67812242221845Q695.2255339722698 348.18313083546474 695.2255339722698 345.06768584636745L695.2255339722698 345.06768584636745Q695.2255339722698 341.3987354023545 696.2218437911181 337.8404860493246L696.2218437911181 337.8404860493246Q699.3372887802153 327.6085423541677 706.2323853043088 319.60643492024275Q713.1274818284021 311.5885130447488 723.0273222506096 307.5874593277864L723.0273222506096 307.5874593277864Q723.248724432576 307.4767582368032 723.5808277055254 307.4767582368032L723.5808277055254 307.4767582368032Q724.3557353424075 307.4767582368032 724.751096381633 308.030263691719Q725.1306429792895 308.59958358820376 725.1306429792895 309.26379013410263L725.1306429792895 309.26379013410263Q725.1306429792895 310.0386977709847 724.2450342514243 310.5922032259005L724.2450342514243 310.5922032259005Q722.6952189776601 311.4778119537657 721.129589262327 312.31597735692384Q719.5797739885629 313.154142760082 718.0141442732298 314.3718547608966L718.0141442732298 314.3718547608966Q711.8939553860184 318.8157128417917 707.5607983961065 325.3787060929356Q703.2276414061946 331.9416993440796 700.9978051449625 339.16889914112244L700.9978051449625 339.16889914112244Q700.2228975080806 341.5094364933376 700.2228975080806 344.4034793004686L700.2228975080806 344.4034793004686Q700.2228975080806 346.7282022111147 700.8871040539794 349.40084283627937Q701.5671250414473 352.073483461444 702.8955381332452 354.35076304738317Q704.223951225043 356.62804263332225 706.2798286290158 358.1304145823793Q708.3357060329886 359.63278653143635 711.1190477491364 359.63278653143635L711.1190477491364 359.63278653143635Q712.9060796464358 359.63278653143635 714.519152686476 358.9685799855374Q716.1322257265163 358.3043734396385 717.5713399092972 357.29224917922113L717.5713399092972 357.29224917922113Q721.7937958082259 354.28750528110703 725.1306429792895 349.51154392726255Q728.467490150353 344.735582573418 730.8080275025682 339.2321569073985Q733.1327504132144 333.728731241379 734.366276855598 328.0039033933932Q735.5839888564127 322.2632611038384 735.5839888564127 317.1551964770444L735.5839888564127 317.1551964770444L735.5839888564127 315.82678338524664Q735.3625866744464 312.93274057811567 733.638812543423 310.92430649884994Q731.9150384123997 308.9316868611532 729.3530988782182 307.69816041876953L729.3530988782182 307.69816041876953Q728.5781912413362 307.3660571458201 727.8507269291612 307.1446549638538Q727.1390770585552 306.92325278188747 726.4748705126563 306.59114950893803L726.4748705126563 306.59114950893803Q725.3520451612558 306.1483451450054 725.3520451612558 305.0413342351739L725.3520451612558 305.0413342351739Q725.3520451612558 304.2506121567228 725.7948495251884 303.69710670180706Q726.25346833069 303.1436012468913 727.0283759675721 303.2543023378745L727.0283759675721 303.2543023378745L727.1390770585552 303.2543023378745Q729.5745010601845 303.4757045198408 731.9782961786758 304.361313247706Q734.366276855598 305.2627364171402 736.2481954023117 306.81255169090434Q738.1459283905942 308.37818140623745 739.426898157685 310.4815021349173Q740.7078679247757 312.60063730516623 741.0399711977252 315.25746348876186L741.0399711977252 315.25746348876186Q741.2613733796915 316.38028884016234 741.2613733796915 317.4398564252868Q741.2613733796915 318.4836095688422 741.2613733796915 319.71713601122593ZM805.8633671891446 271.67286252453846L805.8633671891446 271.67286252453846Q805.8633671891446 272.9063889669221 804.6456551883299 273.3491933308547L804.6456551883299 273.3491933308547Q802.7479222000472 274.12410096773675 801.1348491600071 274.63016309794546Q799.521776119967 275.1204107865851 797.6398575732533 276.0060195144503L797.6398575732533 276.0060195144503Q793.1801850507892 278.23585577568235 789.5744923730523 281.52525962203885Q785.9529852537464 284.7988490268263 783.0114991219084 288.68920165280565Q780.0700129900704 292.57955427878494 777.7769189625623 296.91271126869685Q775.4996393766231 301.26168270017774 773.7284219208927 305.7055407810728L773.7284219208927 305.7055407810728L773.6177208299096 306.0376440540223Q775.8317426495726 305.7055407810728 778.0141355860976 305.37343750812335Q780.1807140810536 305.0413342351739 782.3947359007166 305.0413342351739L782.3947359007166 305.0413342351739Q783.517561252117 305.0413342351739 785.3994797988306 305.19947865086414Q787.2972127871132 305.37343750812335 788.2935226059616 305.81624187205597L788.2935226059616 305.81624187205597Q788.7363269698942 306.0376440540223 789.0209869181365 306.70185059992116Q789.2898324248099 307.3660571458201 789.2898324248099 307.80886150975266L789.2898324248099 307.80886150975266Q789.2898324248099 308.14096478270216 789.1316880091197 308.5363258219277Q788.9577291518605 308.9316868611532 788.5149247879278 309.1530890431195L788.5149247879278 309.1530890431195Q784.6245721619485 310.92430649884994 779.9593118990872 311.31966753807546Q775.2782371946569 311.699214135732 771.055781295728 312.1578329412336L771.055781295728 312.1578329412336Q767.1654286697487 321.93115783088894 763.8285814986853 331.7202971621133Q760.4917343276217 341.5094364933376 757.1548871565582 351.5199780065283L757.1548871565582 351.5199780065283Q754.830164245912 358.52577562160485 752.8217301666463 365.64227432766455Q750.8132960873804 372.75877303372425 748.4885731767343 379.7013128825247Q746.1480358245191 386.65966717289416 743.143291926405 393.38080483972834Q740.1385480282909 400.10194250656247 735.9160921293621 406.22213139377385L735.9160921293621 406.22213139377385Q733.9234724916655 409.00547310992164 731.408976282191 411.50415487782703Q728.9102945142856 414.00283664573243 725.9688083824476 415.90056963401497Q723.0273222506096 417.7824881807286 719.6904750795461 418.9053135321291Q716.3536279084825 420.01232444196063 712.9060796464358 420.01232444196063L712.9060796464358 420.01232444196063Q708.683623747507 420.01232444196063 704.5086111732853 418.50995249290355Q700.3335985990636 417.0075805438466 696.6172048303437 414.55634210064824Q692.8849966200545 412.12091809901887 689.7695516309573 408.89477201893845Q686.65410664186 405.66862593885804 684.5507859131802 402.1103765858282L684.5507859131802 402.1103765858282Q684.3293837312139 401.4461700399293 684.3293837312139 401.22476785796306L684.3293837312139 401.22476785796306Q684.3293837312139 400.5447468704951 684.8196314198535 400.10194250656247Q685.3256935500622 399.6591381426299 685.9899000959612 399.6591381426299L685.9899000959612 399.6591381426299Q686.7648077328431 399.6591381426299 687.4448287203111 400.32334468852883L687.4448287203111 400.32334468852883Q688.3304374481763 401.5568711309125 689.1053450850584 402.61643871603695Q689.8802527219405 403.6601918595923 690.7816758913747 404.7830172109929L690.7816758913747 404.7830172109929Q694.5613274263708 408.7840709279553 699.3372887802153 411.67811373508624Q704.1132501340599 414.55634210064824 709.6799335663554 415.4577652700824L709.6799335663554 415.4577652700824Q710.3441401122543 415.5684663610656 711.0083466581532 415.61590968577264Q711.6725532040521 415.6791674520487 712.35257419152 415.6791674520487L712.35257419152 415.6791674520487Q716.685731181432 415.6791674520487 720.402124950152 413.84469223004226Q724.1343331604412 412.01021700803574 727.2497781495383 408.94221534364556Q730.3652231386357 405.8900281208244 732.863904906541 401.88897440386194Q735.3625866744464 397.88792068689946 737.4184640784192 393.66546478797073Q739.474341482392 389.4271944474729 740.9767134314491 385.26799631482027Q742.4790853805061 381.0929837405986 743.5860962903377 377.64543547855186L743.5860962903377 377.64543547855186Q745.8159325515696 370.63963786347534 747.7136655398523 363.69709801467485Q749.5955840865659 356.7387437243054 751.8254203477978 349.73294610922886L751.8254203477978 349.73294610922886Q754.9408653368951 340.4024255835061 757.8823514687331 331.2142350319046Q760.8238376005711 322.04185892187206 764.2713858626178 312.93274057811567L764.2713858626178 312.93274057811567Q760.6024354186048 313.2648438510651 756.9334849745918 313.4862460330314Q753.2645345305789 313.70764821499773 749.5955840865659 313.70764821499773L749.5955840865659 313.70764821499773Q749.1527797226332 313.70764821499773 748.7574186834076 312.9801839028227Q748.3778720857512 312.2685340322168 748.3778720857512 311.82572966828417L748.3778720857512 311.82572966828417Q748.3778720857512 310.70290431688363 749.2634808136164 310.3708010439342L749.2634808136164 310.3708010439342Q750.5918939054142 310.0386977709847 751.9835647634881 309.81729558901844Q753.375235621562 309.59589340705213 754.7194631549288 309.3744912250858L754.7194631549288 309.3744912250858Q757.5976915204908 308.82098577017007 760.6024354186048 308.31492363996136Q763.6071793167189 307.80886150975266 766.611923214833 307.2553560548369L766.611923214833 307.2553560548369Q766.9440264877825 306.2590462359886 767.3393875270081 305.31017974184726Q767.7189341246645 304.361313247706 768.1617384885972 303.4757045198408L768.1617384885972 303.4757045198408Q770.5022758408123 297.59273225616477 773.8391230118758 291.8520899666099Q777.1759701829394 286.1272621186241 781.5723849391275 281.52525962203885Q785.9529852537464 276.90744268388454 791.519668686042 273.7919976947873Q797.0705376767685 270.67655270569 803.7442320188957 270.01234615979115L803.7442320188957 270.01234615979115L804.1870363828283 270.01234615979115Q804.8670573702962 270.01234615979115 805.3573050589358 270.5025938484308Q805.8633671891446 271.0086559786395 805.8633671891446 271.67286252453846ZM806.8596770079929 276.90744268388454L806.8596770079929 276.90744268388454Q806.8596770079929 277.5716492297835 806.3061715530771 278.45725795764866L806.3061715530771 278.45725795764866L806.195470462094 278.78936123059816Q806.4168726440603 279.45356777649704 806.4168726440603 279.8014854910155L806.4168726440603 279.8014854910155Q805.6419650071782 280.35499094593126 805.3098617342288 280.95593972555406Q804.9777584612793 281.57270294674595 803.7442320188957 281.57270294674595L803.7442320188957 281.57270294674595Q802.7479222000472 281.57270294674595 801.7516123811989 280.73453754358775Q800.7394881207815 279.91218658199864 800.7394881207815 278.678660139615L800.7394881207815 278.678660139615Q800.7394881207815 276.6860405019182 801.1348491600071 275.4050707348275Q801.5302101992327 274.12410096773675 804.0763352918451 274.12410096773675L804.0763352918451 274.12410096773675Q805.0884595522625 274.12410096773675 805.9740682801277 275.00970969560194Q806.8596770079929 275.8953184234672 806.8596770079929 276.90744268388454ZM806.0847693711108 347.8510275625153L806.0847693711108 347.8510275625153Q806.0847693711108 348.404533017431 805.7526660981614 348.7366362903805L805.7526660981614 348.7366362903805Q803.6335309279125 351.29857582456196 801.6883546149229 353.79725759246736Q799.7431783019332 356.29593936037276 797.5765998069772 358.41507453062167Q795.4100213120213 360.51839525930154 792.7373806868566 362.02076720835856Q790.064740061692 363.52313915741564 786.6171917996453 364.1873457033145L786.6171917996453 364.1873457033145Q783.6282623431002 362.8589326115167 782.5054369916996 360.6923541165608Q781.3984260818681 358.52577562160485 781.3984260818681 355.41033063250757L781.3984260818681 355.41033063250757L781.3984260818681 351.40927691554515Q781.3984260818681 348.5152341084142 782.01518930306 345.39978911931695Q782.6161380826829 342.28434413021967 783.2961590701508 339.39030132308875L783.2961590701508 339.39030132308875Q784.2924688889991 335.05714433317684 785.5734386560898 330.05978079736605Q786.8544084231806 325.04660281998616 788.578182554204 320.0966826088824Q790.3019566852273 315.1467623977787 792.5159785048903 310.5447599011934Q794.7458147661223 305.9269429630391 797.5291564822701 302.47939470099243L797.5291564822701 302.47939470099243Q798.082661937186 301.9258892460767 798.6361673921017 301.9258892460767L798.6361673921017 301.9258892460767Q799.3003739380006 301.9258892460767 799.9645804838995 302.41613693471635Q800.6287870297983 302.922199064925 800.6287870297983 303.69710670180706L800.6287870297983 303.69710670180706L800.6287870297983 303.91850888377337Q798.7468684830849 309.81729558901844 796.3588878061626 316.3170310738863Q793.9709071292403 322.83258100032316 791.7885141927154 329.5537186671573Q789.6219356977593 336.27485633399147 788.1195637487024 342.9485506761186Q786.6171917996453 349.6222450182457 786.6171917996453 355.8531349964402L786.6171917996453 355.8531349964402Q786.6171917996453 356.51734154233907 786.6804495659214 357.73505354315375Q786.7437073321975 358.9685799855374 787.4079138780965 359.30068325848686L787.4079138780965 359.30068325848686Q789.8433378797257 358.8578788945543 792.5792362711665 356.7387437243054Q795.2993202210381 354.63542299562556 797.6873008979604 352.29488564341034Q800.0752815748826 349.9543482911951 801.8623134721821 348.07242974448155Q803.6335309279125 346.174696756199 804.2977374738114 346.174696756199L804.2977374738114 346.174696756199Q804.8670573702962 346.174696756199 805.468006149919 346.7282022111147Q806.0847693711108 347.2817076660305 806.0847693711108 347.8510275625153ZM843.5491814481229 352.51628782537665L843.5491814481229 352.51628782537665Q843.5491814481229 353.0697932802924 843.1063770841904 353.51259764422497L843.1063770841904 353.51259764422497Q841.3351596284599 355.18892845054125 838.7732200942784 357.29224917922113Q836.2112805600968 359.41138434947004 833.380495519242 361.1826018052004Q830.5497104783872 362.9696337024999 827.5924099049802 364.1873457033145Q824.6509237731422 365.4208721456982 822.1996853299438 365.4208721456982L822.1996853299438 365.4208721456982Q818.641435976914 365.4208721456982 816.6488163392172 363.63384024839877Q814.6403822599515 361.86262279266833 813.5966291163961 359.2374254922108Q812.5370615312717 356.62804263332225 812.2524015830293 353.5758554105011Q811.9835560763559 350.50785374611087 811.9835560763559 347.8510275625153L811.9835560763559 347.8510275625153Q811.9835560763559 341.6201375843208 813.2012680771705 335.6106497880926Q814.4189800779852 329.6169764334334 815.8739087023353 323.6074886372052L815.8739087023353 323.6074886372052Q818.641435976914 311.9364307592673 822.5950463691694 300.80306389467614Q826.5486567614248 289.68551147165397 832.5423301160839 279.2321655945307L832.5423301160839 279.2321655945307Q833.6651554674845 277.23954595683404 834.835424143592 275.2311118775683Q835.9898783781306 273.23849223987156 837.3341059114974 271.4514603425721L837.3341059114974 271.4514603425721Q837.77691027543 270.7872537966732 838.5518179123121 270.7872537966732L838.5518179123121 270.7872537966732Q839.216024458211 270.7872537966732 839.8327876794028 271.23005816060584Q840.4495509005947 271.67286252453846 840.4495509005947 272.44777016142046L840.4495509005947 272.44777016142046Q840.4495509005947 272.79568787593894 840.3388498096115 273.01709005790525L840.3388498096115 273.01709005790525Q835.3256718322317 285.90585993665786 829.9962050234715 298.69974316599627Q824.6509237731422 311.4778119537657 821.3140766020786 324.93590172900304L821.3140766020786 324.93590172900304Q819.7642613283144 330.94538952523123 818.4832915612237 337.1130217371496Q817.202321794133 343.28065394906804 817.202321794133 349.6222450182457L817.202321794133 349.6222450182457Q817.202321794133 351.29857582456196 817.2655795604092 353.2437521375516Q817.3130228851162 355.18892845054125 817.8190850153248 356.84944481528856Q818.3093327039645 358.52577562160485 819.4796013800722 359.6802298561434Q820.6498700561797 360.850498532251 822.8797063174118 360.850498532251L822.8797063174118 360.850498532251Q825.315130319041 360.850498532251 828.3831319834312 359.30068325848686Q831.4353192062524 357.73505354315375 834.2661042471073 355.7898772301641Q837.1127037295312 353.84470091717446 839.216024458211 352.29488564341034Q841.3351596284599 350.7292559280772 841.7779639923924 350.7292559280772L841.7779639923924 350.7292559280772Q842.4421705382914 350.7292559280772 842.9956759932071 351.29857582456196Q843.5491814481229 351.8520812794777 843.5491814481229 352.51628782537665ZM881.2508101486703 313.3755449420483L881.2508101486703 313.3755449420483Q881.2508101486703 316.1588866581961 879.9223970568726 318.8789706080678Q878.5781695235056 321.5990545579395 876.5222921195328 324.05029300113785Q874.4664147155601 326.5015314443362 872.0151762723617 328.4941510820329Q869.5797522707323 330.5025851612986 867.4606171004834 331.9416993440796L867.4606171004834 331.9416993440796Q864.2344710204031 334.1715356053116 860.7394794336493 336.05345415202515Q857.2286734053266 337.95118714030775 853.116918597381 337.95118714030775L853.116918597381 337.95118714030775Q852.2313098695157 337.95118714030775 851.1717422843913 337.72978495834144Q850.1121746992668 337.5083827763752 850.1121746992668 336.27485633399147L850.1121746992668 336.27485633399147Q850.1121746992668 334.7250410602274 851.5671033236168 334.3929377872779L851.5671033236168 334.3929377872779Q851.8992065965663 334.2822366962948 852.3420109604989 334.2822366962948Q852.7848153244315 334.2822366962948 853.227619688364 334.1715356053116L853.227619688364 334.1715356053116Q854.4611461307477 333.95013342334533 855.6156003652864 333.3966279684296Q856.7858690413939 332.8273080719448 858.0193954837775 332.16310152604586L858.0193954837775 332.16310152604586Q859.9013140304912 330.94538952523123 862.7953568376222 328.7155532639992Q865.6893996447532 326.5015314443362 868.4569269193319 323.82889081917153Q871.2402686354797 321.1562501940069 873.1854449484692 318.3729084778591Q875.1306212614589 315.60538120328033 875.1306212614589 313.154142760082L875.1306212614589 313.154142760082Q875.1306212614589 311.5885130447488 873.4701048967117 311.5885130447488L873.4701048967117 311.5885130447488Q872.8058983508129 311.5885130447488 872.1416918049139 311.82572966828417Q871.4616708174459 312.0471318502505 870.797464271547 312.2685340322168L870.797464271547 312.2685340322168Q865.4679974627868 314.03975148794717 861.0083249403227 317.6612586072531Q856.5644668594277 321.26695128499006 853.3383207793472 326.05872708040357Q850.1121746992668 330.83468843424805 848.2776994772603 336.27485633399147Q846.4432242552539 341.7308386753039 846.4432242552539 347.17100657504733L846.4432242552539 347.17100657504733Q846.4432242552539 348.9580384723468 846.7278842034963 351.2353180582859Q846.9967297101696 353.51259764422497 847.8348951133278 355.5210317234907Q848.6730605164859 357.51365136118744 850.1121746992668 358.90532221926134Q851.5671033236168 360.29699307733523 853.8918262342629 360.29699307733523L853.8918262342629 360.29699307733523Q854.7932494036972 360.29699307733523 855.5681570405793 360.0281475706619Q856.3430646774614 359.7434876224195 857.1179723143434 359.30068325848686L857.1179723143434 359.30068325848686Q860.1227162124575 357.62435245217057 862.684655746639 354.79356741131573Q865.2465952808204 351.96278237046084 867.2392149185172 349.0687395633299L867.2392149185172 349.0687395633299Q867.792720373433 348.404533017431 868.2987825036416 347.629625380549Q868.8048446338503 346.8389033020979 869.3583500887661 346.0639956652158L869.3583500887661 346.0639956652158Q869.6904533617155 345.5104902103001 870.4653609985976 345.5104902103001L870.4653609985976 345.5104902103001Q871.1295675444965 345.5104902103001 871.7463307656883 345.9532945742327Q872.3630939868801 346.39609893816527 872.3630939868801 347.17100657504733L872.3630939868801 347.17100657504733Q872.3630939868801 347.4082231985827 872.1416918049139 347.8510275625153L872.1416918049139 347.8510275625153Q870.797464271547 350.28645156414456 868.8048446338503 353.2437521375516Q866.7964105545846 356.18523826938963 864.3451721113863 358.7471778035711Q861.909748109757 361.2933028961836 859.063148627333 363.01707702720694Q856.2323635864782 364.74085115823027 853.116918597381 364.74085115823027L853.116918597381 364.74085115823027Q849.6693703353342 364.74085115823027 847.3920907493952 362.7956748452406Q845.114811163456 360.850498532251 843.7863980716581 358.01971349139615Q842.4421705382914 355.18892845054125 841.8886650833756 351.8995246041848Q841.3351596284599 348.6259351993973 841.3351596284599 345.9532945742327L841.3351596284599 345.9532945742327Q841.3351596284599 337.5083827763752 844.8934089814898 329.77512084912365Q848.4516583345196 322.04185892187206 854.4611461307477 316.1588866581961L854.4611461307477 316.1588866581961Q856.2323635864782 314.3718547608966 858.5729009386935 312.53737953889015Q860.8976238493397 310.70290431688363 863.5228211497972 309.2005323678266Q866.1322040086857 307.69816041876953 868.8522879585573 306.76510836619724Q871.5723719084292 305.81624187205597 874.1343114426106 305.81624187205597L874.1343114426106 305.81624187205597Q877.3604575226909 305.81624187205597 879.3056338356806 307.9828203670119Q881.2508101486703 310.1493988619679 881.2508101486703 313.3755449420483ZM950.9766830264864 278.78936123059816L950.9766830264864 278.78936123059816Q950.8659819355032 279.45356777649704 950.3599198052946 280.0228876729818Q949.8538576750859 280.5763931278976 949.0789500382037 280.5763931278976L949.0789500382037 280.5763931278976Q948.0826402193554 280.5763931278976 947.086330400507 280.4656920369144Q946.0742061400897 280.35499094593126 944.9671952302581 280.35499094593126L944.9671952302581 280.35499094593126Q936.743685614367 280.35499094593126 928.8364648298561 283.4704359350285Q920.9450584869144 286.57006648255674 914.3346219110634 291.915347732886Q907.7241853352124 297.2448145416463 902.8217084488157 304.361313247706Q897.9350460039881 311.4778119537657 895.5945086517729 319.4957338292596L895.5945086517729 319.4957338292596Q894.8196010148908 322.04185892187206 894.3135388846822 324.7144995470367Q893.8232911960424 327.3871401722014 893.491187923093 329.94907970638286L893.491187923093 329.94907970638286Q893.0325691175913 332.9380091629279 892.9218680266083 336.05345415202515Q892.8111669356251 339.16889914112244 893.2539712995576 342.17364303923654Q893.7125901050592 345.17838693735064 894.6456421576315 347.9617286534984Q895.5945086517729 350.7292559280772 897.3815405490723 353.0697932802924L897.3815405490723 353.0697932802924Q898.0457470949711 353.9554020081576 898.8206547318532 354.79356741131573Q899.5955623687353 355.6317328144739 900.4811710966005 356.18523826938963L900.4811710966005 356.18523826938963Q902.1575019029168 357.181548088238 904.7194414370983 357.62435245217057Q907.2655665297108 358.0829712576722 909.3847016999596 358.0829712576722L909.3847016999596 358.0829712576722Q915.3941894961878 358.0829712576722 921.3878628508471 355.5210317234907Q927.3973506470752 352.9590921893092 931.8412087279703 348.404533017431L931.8412087279703 348.404533017431Q933.074735170354 347.17100657504733 933.9603438982192 346.0165523405088Q934.8459526260845 344.84628366440114 935.8422624449327 343.50205613103435L935.8422624449327 343.50205613103435Q936.4115823414174 342.7271484941523 937.2971910692827 342.7271484941523L937.2971910692827 342.7271484941523Q937.9613976151816 342.7271484941523 938.4674597453903 343.16995285808486Q938.95770743403 343.6127572220175 938.8470063430468 344.4034793004686L938.8470063430468 344.4034793004686Q938.8470063430468 344.5141803914517 938.6256041610804 344.9569847553843L938.6256041610804 344.9569847553843Q936.3008812504343 348.9580384723468 932.8533329883876 352.23162787713426Q929.4057847263409 355.5210317234907 925.3889165678095 357.79831130942983Q921.3878628508471 360.0755908953689 917.007262536228 361.3565606624597Q912.6108477800401 362.6375304295504 908.166989699145 362.6375304295504L908.166989699145 362.6375304295504Q906.9334632567613 362.6375304295504 905.4943490739804 362.52682933856727Q904.0394204496304 362.41612824758414 902.6003062668494 362.13146829934175Q901.1611920840685 361.86262279266833 899.8169645507016 361.4672617534428Q898.4885514589038 361.0719007142173 897.4922416400555 360.51839525930154L897.4922416400555 360.51839525930154Q896.5908184706212 359.9648898043858 895.7052097427561 359.07928107652054Q894.8196010148908 358.19367234865535 894.0446933780088 357.40295027020426L894.0446933780088 357.40295027020426Q889.0315154006289 351.8520812794777 888.0352055817805 344.4509226251756Q887.0388957629323 337.06557841244256 888.0352055817805 329.3797598098981L888.0352055817805 329.3797598098981Q888.36730885473 326.72293362630245 888.9208143096457 324.05029300113785Q889.4743197645615 321.3776523759732 890.1543407520294 318.7050117508085L890.1543407520294 318.7050117508085Q892.2576614807093 310.4815021349173 897.1601383671059 302.7482402076658Q902.0468008119336 295.0307927219833 908.8786395697509 289.08456269203117Q915.7262927691372 283.12251822051 923.9023590603215 279.5168255427731Q932.0626109099367 275.8953184234672 940.6340382403462 275.8953184234672L940.6340382403462 275.8953184234672Q942.626657878043 275.8953184234672 945.4099995941908 276.1799783717096Q948.1933413103386 276.464638319952 949.964558766069 277.12884486585085L949.964558766069 277.12884486585085Q951.0873841174695 277.5716492297835 950.9766830264864 278.78936123059816ZM994.8933872636592 342.39504522120285L994.8933872636592 342.39504522120285Q991.9993444565283 348.29383192644787 988.883899467431 352.91164886460217Q985.7684544783338 357.51365136118744 980.771090942523 361.86262279266833L980.771090942523 361.86262279266833Q978.3198524993246 364.0766446123314 975.2044075102274 364.0766446123314L975.2044075102274 364.0766446123314Q973.5438911454801 364.0766446123314 972.041519196423 363.12777811819007Q970.539147247366 362.19472606561783 969.9856417924502 360.51839525930154L969.9856417924502 360.51839525930154Q969.764239610484 359.9648898043858 969.700981844208 358.9685799855374Q969.6535385195008 357.95645572512007 969.5902807532248 356.84944481528856Q969.5428374285177 355.742433905457 969.5902807532248 354.6828663203326Q969.6535385195008 353.62329873520815 969.6535385195008 352.9590921893092L969.6535385195008 352.9590921893092Q965.7631858935215 357.62435245217057 960.4811624094683 360.91375629852706Q955.1991389254151 364.1873457033145 948.8575478562375 364.1873457033145L948.8575478562375 364.1873457033145Q948.5254445832879 364.1873457033145 947.9086813620961 363.96594352134827Q947.3077325824734 363.74454133938195 946.9756293095238 363.63384024839877L946.9756293095238 363.63384024839877Q944.4136897753424 362.41612824758414 943.1327200082517 359.7434876224195Q941.851750241161 357.0708469972548 941.851750241161 354.3982063720902L941.851750241161 354.3982063720902Q941.851750241161 350.7292559280772 942.8006167353021 347.1235632503403Q943.7494832294435 343.50205613103435 945.3625562694838 340.11776563526377Q946.9756293095238 336.7334751394931 949.0789500382037 333.6180301503959Q951.1980852084527 330.5025851612986 953.5228081190987 327.7192434451508L953.5228081190987 327.7192434451508Q959.532295915327 320.2706414661417 967.3130011672856 314.7672158001222Q975.0937064192442 309.26379013410263 984.2186392045696 305.9269429630391L984.2186392045696 305.9269429630391Q984.3293402955528 305.81624187205597 984.6614435685022 305.81624187205597L984.6614435685022 305.81624187205597Q985.4363512053842 305.81624187205597 985.8317122446099 306.3697473269717Q986.2270732838354 306.92325278188747 986.2270732838354 307.5874593277864L986.2270732838354 307.5874593277864Q986.2270732838354 308.59958358820376 985.4363512053842 308.9316868611532L985.4363512053842 308.9316868611532Q983.5544326586707 309.92799668000157 981.7199574366643 310.7661620831597Q979.8854822146577 311.5885130447488 978.0984503173582 312.60063730516623L978.0984503173582 312.60063730516623Q965.7631858935215 319.71713601122593 957.302459654095 330.83468843424805L957.302459654095 330.83468843424805Q955.6419432893476 333.0487102539111 953.8549113920483 335.8320519700589Q952.0836939363179 338.6153936862067 950.6445797535368 341.5568798180447Q949.1896511291868 344.5141803914517 948.2407846350457 347.629625380549Q947.3077325824734 350.7292559280772 947.3077325824734 353.62329873520815L947.3077325824734 353.62329873520815Q947.3077325824734 354.0661030991407 947.4184336734565 354.90426850229886Q947.5291347644397 355.742433905457 947.7505369464059 356.58059930861515Q947.9719391283722 357.40295027020426 948.4621868170119 358.01971349139615Q948.9682489472207 358.636476712588 949.6324554931196 358.636476712588L949.6324554931196 358.636476712588Q952.8586015731998 358.636476712588 955.9266032375901 356.9601459062717Q958.9787904604112 355.29962954152444 961.651431085576 352.7376900073429Q964.3082572691715 350.17575047316143 966.4273924394204 347.2817076660305Q968.5465276096693 344.4034793004686 969.874940701467 341.8415397662871L969.874940701467 341.8415397662871Q972.4368802356487 337.17627950342575 974.4294998733453 332.44776147428826Q976.437933952611 327.7192434451508 978.4305535903078 322.94328209130634L978.4305535903078 322.94328209130634Q979.221275668759 320.93484801204056 980.2650288123143 318.26220738687596Q981.3245963974387 315.60538120328033 982.3209062162871 313.70764821499773L982.3209062162871 313.70764821499773Q982.7795250217887 312.93274057811567 983.7758348406371 312.93274057811567L983.7758348406371 312.93274057811567Q984.5507424775192 312.93274057811567 985.1042479324349 313.3755449420483Q985.6577533873507 313.81834930598086 985.6577533873507 314.5932569428629L985.6577533873507 314.5932569428629L985.5470522963674 314.81465912482923Q984.6614435685022 318.8157128417917 983.5544326586707 322.8800243250302Q982.4474217488391 326.94433580826876 981.1031942154724 330.83468843424805L981.1031942154724 330.83468843424805Q980.5496887605567 332.3845037080122 979.7747811236745 334.2822366962948Q978.9998734867925 336.16415524300834 978.5412546812909 337.5083827763752L978.5412546812909 337.5083827763752Q978.3198524993246 338.28329041325725 978.2724091746176 339.0581980501393Q978.2091514083415 339.8331056870213 978.0984503173582 340.6238277654724L978.0984503173582 340.6238277654724Q977.7663470444088 342.39504522120285 977.3868004467523 344.1188193522262Q976.9914394075269 345.8425934832495 976.5486350435942 347.629625380549L976.5486350435942 347.629625380549Q975.9951295886785 349.843647200212 975.5997685494528 352.1209267861511Q975.2044075102274 354.3982063720902 975.2044075102274 356.7387437243054L975.2044075102274 356.7387437243054Q975.2044075102274 357.29224917922113 975.2044075102274 357.73505354315375Q975.2044075102274 358.19367234865535 975.3309230427795 358.636476712588L975.3309230427795 358.636476712588Q976.1058306796616 358.636476712588 977.1653982647861 357.95645572512007Q978.2091514083415 357.29224917922113 979.331976759742 356.3591971266489Q980.4389876695736 355.41033063250757 981.3878541637148 354.3982063720902Q982.3209062162871 353.40189655324184 982.8902261127719 352.8483910983261L982.8902261127719 352.8483910983261Q986.2270732838354 349.29014174529624 989.2160027403805 344.9569847553843L989.2160027403805 344.9569847553843Q990.0067248188316 344.07137602751914 990.6076735984543 343.0118084423947Q991.2244368196461 341.9522408572702 991.9993444565283 341.06663212940504L991.9993444565283 341.06663212940504Q992.3314477294778 340.5131266744893 992.9956542753766 340.5131266744893L992.9956542753766 340.5131266744893Q993.7863763538278 340.5131266744893 994.3398818087435 341.06663212940504Q994.8933872636592 341.6201375843208 994.8933872636592 342.39504522120285ZM1039.600813579283 315.25746348876186L1039.600813579283 315.25746348876186Q1039.600813579283 316.1588866581961 1039.4901124883 316.93379429507814Q1039.3794113973167 317.7087019319602 1039.1421947737813 318.5943106598254L1039.1421947737813 318.5943106598254Q1038.920792591815 319.4957338292596 1037.9244827729667 319.4957338292596L1037.9244827729667 319.4957338292596Q1037.4816784090344 319.4957338292596 1036.6435130058758 319.1003727900341Q1035.8211620442871 318.7050117508085 1035.8211620442871 318.26220738687596L1035.8211620442871 318.26220738687596L1035.9318631352699 317.2658975680276Q1035.9318631352699 316.4909899311455 1035.7579042780108 315.383979021314Q1035.5839454207517 314.2611536699135 1035.2043988230953 313.201586084789Q1034.8090377838694 312.1578329412336 1034.1448312379707 311.4303686290586Q1033.4806246920716 310.70290431688363 1032.3736137822402 310.70290431688363L1032.3736137822402 310.70290431688363Q1029.7009731570756 310.70290431688363 1026.6962292589615 312.31597735692384Q1023.6914853608475 313.92905039696404 1021.5881646321675 315.49468011229715L1021.5881646321675 315.49468011229715Q1020.6867414627334 316.1588866581961 1019.1369261889693 317.4872997499939Q1017.571296473636 318.8157128417917 1015.9107801088888 320.3813425571248Q1014.2344493025726 321.93115783088894 1012.8585928860678 323.3860864552389Q1011.4669220279939 324.8252006380199 1010.913416573078 325.7108093658851L1010.913416573078 325.7108093658851Q1010.5654988585596 326.1694281713867 1010.07525116992 327.3238824059253Q1009.5691890397111 328.4941510820329 1009.0631269095024 329.83837861539973Q1008.5728792208628 331.16679170719755 1008.066817090654 332.3845037080122Q1007.5765694020145 333.6180301503959 1007.228651687496 334.2822366962948L1007.228651687496 334.2822366962948Q1005.0146298678329 339.611703505055 1002.9587524638603 344.9569847553843Q1000.9028750598874 350.28645156414456 999.1158431625879 355.742433905457L999.1158431625879 355.742433905457Q998.2302344347227 358.3043734396385 997.5027701225476 361.02445738951025Q996.7911202519417 363.74454133938195 995.8896970825076 366.30648087356343L995.8896970825076 366.30648087356343Q995.4468927185751 367.1920896014286 994.782686172676 367.1920896014286L994.782686172676 367.1920896014286Q994.3398818087435 367.1920896014286 993.5017164055853 366.6860274712199Q992.6635510024271 366.19577978258025 992.6635510024271 365.7529754186477L992.6635510024271 365.7529754186477Q992.6635510024271 364.51944897626396 993.0589120416525 362.9696337024999Q993.4542730808782 361.40400398716673 993.6756752628446 360.1862919863521L993.6756752628446 360.1862919863521Q995.1147894456255 352.9590921893092 997.2339246158745 345.9532945742327Q999.3372453445543 338.9474969591561 1002.1205870607021 332.16310152604586L1002.1205870607021 332.16310152604586Q1003.1168968795505 329.49046090088126 1004.5085677376243 325.8215104568682Q1005.9002385956983 322.15256001285525 1007.4658683110314 318.32546515315204Q1009.0156835847954 314.4825558518798 1010.7394577158188 311.09826535610915Q1012.4632318468422 307.69816041876953 1014.2344493025726 305.7055407810728L1014.2344493025726 305.7055407810728Q1014.6930681080742 305.2627364171402 1015.24657356299 305.2627364171402L1015.24657356299 305.2627364171402Q1015.6893779269226 305.2627364171402 1016.5275433300807 305.7529841057799Q1017.3498942916699 306.2590462359886 1017.3498942916699 306.81255169090434L1017.3498942916699 306.81255169090434Q1017.3498942916699 307.1446549638538 1017.1284921097035 307.9828203670119Q1016.9070899277373 308.82098577017007 1016.6856877457708 309.7540378227423Q1016.4642855638047 310.70290431688363 1016.1796256155623 311.5410697200418Q1015.9107801088888 312.3792351231999 1015.8000790179058 312.71133839614936L1015.8000790179058 312.71133839614936Q1019.3583283709356 310.0386977709847 1023.2486809969148 307.91956260073584Q1027.1390336228942 305.81624187205597 1031.8042938857552 305.81624187205597L1031.8042938857552 305.81624187205597Q1033.8127279650212 305.81624187205597 1035.251842147802 306.6544072752141Q1036.7067707721521 307.4767582368032 1037.7030805910003 308.82098577017007Q1038.699390409849 310.1493988619679 1039.1421947737813 311.82572966828417Q1039.600813579283 313.4862460330314 1039.600813579283 315.25746348876186ZM1092.8638527837475 273.4598944218379L1092.8638527837475 273.4598944218379Q1092.8638527837475 273.7919976947873 1092.7531516927647 274.0133998767536L1092.7531516927647 274.0133998767536Q1089.1949023397347 282.56901276559427 1085.9054984933782 291.07718232972786Q1082.6319090885909 299.58535189386146 1079.73786628146 308.48888249722063L1079.73786628146 308.48888249722063Q1080.5127739183417 308.7102846791869 1081.50908373719 309.1530890431195Q1082.5212079976077 309.59589340705213 1082.5212079976077 310.4815021349173L1082.5212079976077 310.4815021349173Q1082.5212079976077 311.2564097717994 1082.078403633675 311.82572966828417Q1081.6197848281731 312.3792351231999 1080.8448771912913 312.3792351231999L1080.8448771912913 312.3792351231999Q1080.4020728273586 312.3792351231999 1079.7853096061667 312.1578329412336Q1079.184360826544 311.9364307592673 1078.7415564626112 311.699214135732L1078.7415564626112 311.699214135732Q1077.0652256562953 316.82309320409496 1075.404709291548 322.61117881835685Q1073.7283784852316 328.38344999104976 1072.336707627158 334.2822366962948Q1070.9450367690838 340.1652089599708 1070.0594280412183 346.0165523405088Q1069.1738193133533 351.8520812794777 1069.1738193133533 357.181548088238L1069.1738193133533 357.181548088238Q1069.1738193133533 357.62435245217057 1069.1738193133533 358.3518167643456Q1069.1738193133533 359.07928107652054 1069.2845204043365 359.7434876224195Q1069.3952214953197 360.4076941683184 1069.679881443562 360.91375629852706Q1069.9487269502356 361.40400398716673 1070.6129334961342 361.40400398716673L1070.6129334961342 361.40400398716673Q1071.6250577565515 361.40400398716673 1073.4595329785584 359.8541887134026Q1075.2940082005648 358.3043734396385 1077.1759267472785 356.2484960356657Q1079.0736597355608 354.17680419012385 1080.797433866584 352.23162787713426Q1082.5212079976077 350.28645156414456 1083.2961156344895 349.51154392726255L1083.2961156344895 349.51154392726255Q1083.628218907439 348.9580384723468 1084.2924254533377 348.9580384723468L1084.2924254533377 348.9580384723468Q1084.9566319992368 348.9580384723468 1085.5101374541528 349.51154392726255Q1086.0794573506373 350.0650493821783 1086.0794573506373 350.7292559280772L1086.0794573506373 350.7292559280772Q1086.0794573506373 351.29857582456196 1085.858055168671 351.5199780065283L1085.858055168671 351.5199780065283Q1083.628218907439 354.96752626857494 1080.9555782822745 357.95645572512007Q1078.2829376571099 360.9611996232341 1075.2940082005648 363.63384024839877L1075.2940082005648 363.63384024839877Q1073.0641719393325 365.64227432766455 1070.502232405151 365.64227432766455L1070.502232405151 365.64227432766455Q1068.2882105854883 365.64227432766455 1067.0546841431046 364.40874788528083Q1065.83697214229 363.1910358844662 1065.2202089210982 361.4672617534428Q1064.619260141475 359.7434876224195 1064.445301284216 357.73505354315375Q1064.2871568685255 355.742433905457 1064.2871568685255 354.0661030991407L1064.2871568685255 354.0661030991407Q1064.2871568685255 352.9590921893092 1064.3346001932327 351.8995246041848Q1064.397857959509 350.83995701906036 1064.5085590504918 349.843647200212L1064.5085590504918 349.843647200212Q1063.0536304261423 351.96278237046084 1060.839608606479 354.5721652293494Q1058.6097723452472 357.181548088238 1056.0003894863585 359.52208544045317Q1053.3751921859007 361.86262279266833 1050.544407145046 363.4756958327086Q1047.713622104191 365.08876887274874 1044.9302803880432 365.08876887274874L1044.9302803880432 365.08876887274874Q1042.0362375809123 365.08876887274874 1040.2017623589059 363.74454133938195Q1038.3672871368994 362.41612824758414 1037.3709773180508 360.3602508436113Q1036.3746674992026 358.3043734396385 1035.9793064599771 355.8531349964402Q1035.5839454207517 353.40189655324184 1035.5839454207517 351.18787473357884L1035.5839454207517 351.18787473357884Q1035.5839454207517 346.39609893816527 1036.7542140968594 341.4461787270615Q1037.9244827729667 336.4962585159578 1039.9803601769395 331.7835549283894Q1042.0362375809123 327.0550368992519 1044.81957929706 322.7693232340471Q1047.6029210132078 318.4836095688422 1050.9397681842715 315.1467623977787L1050.9397681842715 315.1467623977787Q1054.8301208102507 311.2564097717994 1060.048886528028 309.0898312768434Q1065.2834666873741 306.92325278188747 1070.9450367690838 306.92325278188747L1070.9450367690838 306.92325278188747Q1071.7357588475347 306.92325278188747 1072.4474087181407 306.92325278188747Q1073.1748730303157 306.92325278188747 1073.949780667198 307.03395387287065L1073.949780667198 307.03395387287065Q1075.1833071095816 302.922199064925 1076.7963801496217 298.25693880206364Q1078.393638748093 293.57586409763326 1080.4020728273586 288.9106038347719Q1082.4105069066245 284.24534357191055 1084.7984875835468 279.91218658199864Q1087.1864682604692 275.56321515051775 1089.8591088856338 272.22636797945415L1089.8591088856338 272.22636797945415Q1090.1912121585829 271.67286252453846 1090.9661197954651 271.67286252453846L1090.9661197954651 271.67286252453846Q1091.6303263413643 271.67286252453846 1092.247089562556 272.1789246547471Q1092.8638527837475 272.6849867849558 1092.8638527837475 273.4598944218379ZM1072.8427697573666 310.81360540786676L1072.8427697573666 310.81360540786676L1071.957161029501 310.81360540786676Q1065.3941677783573 310.70290431688363 1060.3335464762704 313.88160707225694Q1055.2729251741835 317.04449538606127 1051.5407169638943 321.994415597165Q1047.8243231951742 326.94433580826876 1045.4363425182519 332.9380091629279Q1043.0483618413296 338.9474969591561 1041.925536489929 344.5141803914517L1041.925536489929 344.5141803914517Q1041.2613299440304 347.4082231985827 1041.2613299440304 350.28645156414456L1041.2613299440304 350.28645156414456Q1041.2613299440304 351.18787473357884 1041.3245877103063 352.69024668263586Q1041.3720310350136 354.17680419012385 1041.767392074239 355.6317328144739Q1042.1469386718954 357.0708469972548 1042.8744029840705 358.0829712576722Q1043.6018672962455 359.07928107652054 1044.9302803880432 359.07928107652054L1044.9302803880432 359.07928107652054Q1046.7173122853428 359.07928107652054 1049.6587984171806 356.9127025815646Q1052.6002845490189 354.7461240866087 1055.668286213409 351.78882351320163Q1058.7204734362303 348.8473373813636 1061.5038151523777 345.9532945742327Q1064.2871568685255 343.0592517671017 1065.6155699603237 341.7308386753039L1065.6155699603237 341.7308386753039Q1065.83697214229 341.5094364933376 1066.058374324256 341.5094364933376L1066.058374324256 341.5094364933376Q1066.6118797791719 333.728731241379 1068.6677571831447 325.99546931412743Q1070.7236345871174 318.26220738687596 1072.8427697573666 310.81360540786676Z " fill="black" transform="matrix(0.800648601640551,0,0,0.8006486016405508,0,23.766366940842204)"/></g></svg>